{
    "asset" : {
        "generator" : "Khronos glTF Blender I/O v3.4.50",
        "version" : "2.0"
    },
    "extensionsUsed" : [
        "KHR_materials_specular",
        "KHR_materials_ior"
    ],
    "scene" : 0,
    "scenes" : [
        {
            "name" : "Scene",
            "nodes" : [
                0
            ]
        }
    ],
    "nodes" : [
        {
            "mesh" : 0,
            "name" : "coevo logo optimizado",
            "rotation" : [
                0.2330208122730255,
                -0.6224290728569031,
                -0.6997539401054382,
                0.2619691789150238
            ],
            "scale" : [
                0.6505110263824463,
                1.1359553337097168,
                0.6474692821502686
            ]
        }
    ],
    "materials" : [
        {
            "doubleSided" : true,
            "extensions" : {
                "KHR_materials_specular" : {
                    "specularColorFactor" : [
                        1.2786732179304037,
                        1.2786732179304037,
                        1.2786732179304037
                    ]
                },
                "KHR_materials_ior" : {
                    "ior" : 1.4500000476837158
                }
            },
            "name" : "Material.001",
            "pbrMetallicRoughness" : {
                "baseColorFactor" : [
                    0.2473507672548294,
                    0.2473507672548294,
                    0.2473507672548294,
                    1
                ],
                "roughnessFactor" : 0.3529411852359772
            }
        }
    ],
    "meshes" : [
        {
            "name" : "TorusKnot.021",
            "primitives" : [
                {
                    "attributes" : {
                        "POSITION" : 0,
                        "NORMAL" : 1
                    },
                    "indices" : 2,
                    "material" : 0
                }
            ]
        }
    ],
    "accessors" : [
        {
            "bufferView" : 0,
            "componentType" : 5126,
            "count" : 20754,
            "max" : [
                5.878448963165283,
                2.578939437866211,
                3.122631311416626
            ],
            "min" : [
                -2.4254040718078613,
                -4.259854316711426,
                -4.144042015075684
            ],
            "type" : "VEC3"
        },
        {
            "bufferView" : 1,
            "componentType" : 5126,
            "count" : 20754,
            "type" : "VEC3"
        },
        {
            "bufferView" : 2,
            "componentType" : 5123,
            "count" : 48402,
            "type" : "SCALAR"
        }
    ],
    "bufferViews" : [
        {
            "buffer" : 0,
            "byteLength" : 249048,
            "byteOffset" : 0,
            "target" : 34962
        },
        {
            "buffer" : 0,
            "byteLength" : 249048,
            "byteOffset" : 249048,
            "target" : 34962
        },
        {
            "buffer" : 0,
            "byteLength" : 96804,
            "byteOffset" : 498096,
            "target" : 34963
        }
    ],
    "buffers" : [
        {
            "byteLength" : 594900,
            "uri" : "data:application/octet-stream;base64,"
        }
    ]
}
